<svg xmlns="http://www.w3.org/2000/svg" viewBox="0 0 558.76 650.08"><defs><style>.cls-1{fill:#d8d9da;}.cls-2{fill:#fff;}.cls-3{fill:#703407;}.cls-4{fill:#f7be56;}</style></defs><title>Ativo 1</title><g id="Camada_2" data-name="Camada 2"><g id="Camada_1-2" data-name="Camada 1"><path class="cls-1" d="M274.1,492.05c-142.43,0-257.88,35.38-257.88,79s115.45,79,257.88,79S532,614.69,532,571.06,416.53,492.05,274.1,492.05Z"/><polygon class="cls-2" points="279.39 338.96 347.29 399.23 550.99 218.46 7.77 218.46 211.48 399.23 279.39 338.96"/><path class="cls-3" d="M211.48,407a7.79,7.79,0,0,1-5.16-2L2.61,224.26a7.78,7.78,0,0,1,5.16-13.58H551a7.77,7.77,0,0,1,5.16,13.58L352.44,405a7.79,7.79,0,0,1-10.31,0l-62.74-55.68L216.63,405A7.77,7.77,0,0,1,211.48,407ZM28.21,226.21,211.48,388.84l62.75-55.68a7.76,7.76,0,0,1,10.32,0l62.73,55.68L530.55,226.21Z"/><polygon class="cls-4" points="550.99 218.46 279.39 7.77 7.77 218.46 550.99 218.46"/><polygon class="cls-4" points="7.77 580 550.99 580 549.54 578.71 9.22 578.71 7.77 580"/><path class="cls-3" d="M551,587.76H7.77a7.76,7.76,0,0,1-5.15-13.58l1.47-1.3a7.78,7.78,0,0,1,5.14-1.94H549.54a7.77,7.77,0,0,1,5.16,2l1.45,1.29A7.76,7.76,0,0,1,551,587.76Z"/><polygon class="cls-4" points="550.99 218.46 347.29 399.23 279.39 338.96 211.48 399.23 7.77 218.46 7.77 578.71 9.22 578.71 549.54 578.71 551 578.71 551 218.46 550.99 218.46"/><path class="cls-3" d="M558.76,218.56v-.12a7.49,7.49,0,0,0-.33-2.21s0,0,0-.07a7.52,7.52,0,0,0-1-2c-.12-.19-.31-.34-.45-.53a9.43,9.43,0,0,0-1.1-1.18,1.79,1.79,0,0,1-.14-.13L284.14,1.63a7.77,7.77,0,0,0-9.52,0L3,212.32s-.08.09-.13.13a8.82,8.82,0,0,0-1.11,1.18c-.14.19-.32.34-.45.53a8.57,8.57,0,0,0-1,2s0,0,0,.07A7.49,7.49,0,0,0,0,218.44V578.71a7.76,7.76,0,0,0,7.77,7.76H551a7.76,7.76,0,0,0,7.77-7.76V218.56ZM284.55,333.16a7.76,7.76,0,0,0-10.32,0l-62.75,55.68L28.21,226.21H530.55L347.29,388.84Zm-269-97.44L199.78,399.23l-92.73,82.29-91.52,81.2ZM84.26,522.5,279.39,349.35,342.13,405l187,165.91H29.68ZM359,399.23,543.23,235.72v327ZM279.39,17.59,528.32,210.68H30.44Z"/><path class="cls-2" d="M114.32,313V211a56.89,56.89,0,0,1,56.73-56.73H387.71A56.89,56.89,0,0,1,444.45,211V313l-97.16,86.23L279.39,339l-67.91,60.27Z"/><path class="cls-3" d="M347.28,407a7.77,7.77,0,0,1-5.15-2l-62.74-55.68L216.63,405a7.79,7.79,0,0,1-10.31,0l-97.16-86.21a7.78,7.78,0,0,1-2.6-5.82V211a64.57,64.57,0,0,1,64.5-64.49H387.71A64.57,64.57,0,0,1,452.22,211V313a7.78,7.78,0,0,1-2.61,5.8L352.44,405A7.77,7.77,0,0,1,347.28,407ZM122.09,309.51l89.39,79.33,62.75-55.68a7.76,7.76,0,0,1,10.32,0l62.73,55.68,89.41-79.33V211a49,49,0,0,0-49-49H171.06a49,49,0,0,0-49,49Z"/><path class="cls-3" d="M301.73,218.44H165.85a7.76,7.76,0,1,1,0-15.51H301.73a7.76,7.76,0,1,1,0,15.51Z"/><path class="cls-3" d="M393,265H165.85a7.77,7.77,0,0,1,0-15.53H393A7.77,7.77,0,1,1,393,265Z"/><path class="cls-3" d="M393,311.63H165.85a7.77,7.77,0,0,1,0-15.53H393a7.77,7.77,0,1,1,0,15.53Z"/></g></g></svg>