<svg xmlns="http://www.w3.org/2000/svg" viewBox="0 0 358.67 289.68"><defs><style>.cls-1{fill:#d8d9da;}.cls-2{fill:#ba4d9b;}.cls-3{fill:#fff;}.cls-4{fill:#3a1a35;}</style></defs><title>pessoas</title><g id="Camada_2" data-name="Camada 2"><g id="Camada_1-2" data-name="Camada 1"><path class="cls-1" d="M180.15,211c-73.21,0-132.56,17.6-132.56,39.33s59.35,39.32,132.56,39.32,132.56-17.61,132.56-39.32S253.36,211,180.15,211Z"/><path class="cls-2" d="M132.34,106.41l-28.95,22.85,23.09,16.53,18.76-38.53A102.6,102.6,0,0,0,132.34,106.41Z"/><path class="cls-2" d="M61.54,107.26l18.77,38.53,23.08-16.53L74.45,106.41A102.77,102.77,0,0,0,61.54,107.26Z"/><path class="cls-3" d="M202,152c-8.08-21.21-24.43-40.68-56.8-44.76l-18.76,38.53-23.09-16.53h0L80.31,145.79,61.54,107.26C29.17,111.34,12.83,130.81,4.74,152a12.08,12.08,0,0,0,2.09,12,123.64,123.64,0,0,0,74.84,43.48h0a125.81,125.81,0,0,0,43.45,0h0A123.58,123.58,0,0,0,200,164,12.08,12.08,0,0,0,202,152Z"/><path class="cls-4" d="M205.79,150.68h0c-10.55-27.66-30.74-43.55-60-47.25a105.23,105.23,0,0,0-13.42-.88,4,4,0,0,0-2.52.87l-26.43,20.86L77,103.42a4,4,0,0,0-2.52-.87,105.38,105.38,0,0,0-13.43.88C31.73,107.13,11.53,123,1,150.68A16,16,0,0,0,3.7,166.39,127.56,127.56,0,0,0,81,211.28a129.86,129.86,0,0,0,44.84,0,127.62,127.62,0,0,0,77.28-44.89A16,16,0,0,0,205.79,150.68Zm-72-40.39c1.79,0,3.61.11,5.49.25l-14.3,29.34-15-10.76Zm-60.71,0,23.85,18.83-15,10.76L67.55,110.54C69.41,110.4,71.24,110.32,73,110.29ZM10,161.6a8.41,8.41,0,0,1-1.48-8.25c9.09-23.83,26.14-37.89,50.71-41.84L76.7,147.44a4,4,0,0,0,2.64,2.1,4.44,4.44,0,0,0,1,.11,4.5,4.5,0,0,0,.51-.08,3.49,3.49,0,0,0,.43-.07,4,4,0,0,0,1.43-.61l16.72-12V205.4a125.06,125.06,0,0,1-17-1.73A119.58,119.58,0,0,1,10,161.6Zm186.86,0a119.52,119.52,0,0,1-72.4,42.07,125.2,125.2,0,0,1-17,1.73V136.93l16.72,12a4.1,4.1,0,0,0,1.43.61,3,3,0,0,0,.43.07,4.34,4.34,0,0,0,.52.08,4.58,4.58,0,0,0,1-.11,4,4,0,0,0,2.63-2.1l17.51-35.93c24.57,3.94,41.63,18,50.71,41.84A8.41,8.41,0,0,1,196.82,161.6Z"/><path class="cls-2" d="M233.55,257.27l11.33-54.13h20.78L277,257.27a123.64,123.64,0,0,0,74.84-43.48,12.13,12.13,0,0,0,2.09-12c-8.09-21.21-24.43-40.68-56.8-44.76l-18.77,38.52-23.08-16.52h0l-23.09,16.52-18.77-38.52c-32.37,4.08-48.72,23.55-56.8,44.76a12.08,12.08,0,0,0,2.09,12A123.61,123.61,0,0,0,233.55,257.27Z"/><path class="cls-3" d="M278.36,195.58l18.77-38.52a102.8,102.8,0,0,0-12.92-.85l-28.93,22.85-28.95-22.85a102.77,102.77,0,0,0-12.91.85l18.77,38.52,7-5,5.71,12.55-11.33,54.13a125.81,125.81,0,0,0,43.45,0l-11.34-54.13,6.44-12Z"/><path class="cls-4" d="M357.67,200.47c-10.54-27.65-30.74-43.55-60-47.24a105.57,105.57,0,0,0-13.43-.89,4.12,4.12,0,0,0-2.52.87l-26.42,20.86-26.42-20.86a4.07,4.07,0,0,0-2.52-.87,105.42,105.42,0,0,0-13.42.89c-29.29,3.69-49.49,19.59-60,47.24a16,16,0,0,0,2.71,15.72,127.61,127.61,0,0,0,77.27,44.89h0a130.52,130.52,0,0,0,44.84,0h0A127.61,127.61,0,0,0,355,216.19,16,16,0,0,0,357.67,200.47Zm-72.05-40.38c1.81,0,3.63.11,5.5.25l-14.3,29.34-11.55-8.26-3.49-2.51Zm-22.39,39.18H247.49l-3.38-7.41,1.44-1,9.73-6.95,3.09,2.21,8.62,6.17Zm-38.31-39.18,23.84,18.82-15,10.77-14.29-29.34C221.3,160.2,223.12,160.11,224.92,160.09ZM161.84,211.4a8.39,8.39,0,0,1-1.47-8.25c9.08-23.83,26.13-37.89,50.71-41.85l17.5,35.94a4,4,0,0,0,2.63,2.09,3.65,3.65,0,0,0,1,.12,4.29,4.29,0,0,0,.5-.07,3.54,3.54,0,0,0,.45-.08,3.9,3.9,0,0,0,1.42-.61l3-2.12,3.19,7-10.3,49.17A119.51,119.51,0,0,1,161.84,211.4Zm76.45,42.7L243.75,228l4.4-21h14.24l4.1,19.56,5.76,27.54A121.86,121.86,0,0,1,238.29,254.1ZM348.7,211.4a119.48,119.48,0,0,1-68.58,41.34l-10.27-49,3.63-6.79c.83.58,1.62,1.15,2.5,1.78a4,4,0,0,0,1.43.61,3.39,3.39,0,0,0,.44.08,4.46,4.46,0,0,0,.51.07,3.58,3.58,0,0,0,1-.12,4,4,0,0,0,2.63-2.09l17.51-35.94c24.57,4,41.62,18,50.71,41.85A8.39,8.39,0,0,1,348.7,211.4Z"/><path class="cls-4" d="M297.13,85.27a3.89,3.89,0,0,1-4-3.83v-.08a4,4,0,1,1,4,3.91Z"/><path class="cls-2" d="M255.28,81.37c23,10.67,39.37-5.56,39.51-5.72-6.83-13.74-20.93-22-39.51-22-22.81,0-38.86,12.43-43,32.18C212.69,85.49,231.43,70.29,255.28,81.37Z"/><path class="cls-3" d="M294.79,75.65c-.14.16-16.56,16.39-39.51,5.72-23.85-11.08-42.59,4.12-43,4.47a51.53,51.53,0,0,0-1.09,10.53c0,25.79,17.47,50.69,44.11,50.69s44.1-24.9,44.1-50.69A46.07,46.07,0,0,0,294.79,75.65Z"/><path class="cls-4" d="M298.39,74C290.74,58.61,275,49.8,255.27,49.8c-24.36,0-42.34,13.51-46.91,35.27a55.25,55.25,0,0,0-1.19,11.3c0,26.82,18,54.56,48.1,54.56s48.1-27.74,48.1-54.56A49.67,49.67,0,0,0,298.39,74ZM255.27,57.53c15.4,0,27.8,6.24,34.5,17.23l-.43.32-.4.28c-.4.28-.83.58-1.31.88l-.07,0-1.47.87-.47.24c-.42.22-.87.45-1.33.67l-.56.26c-.52.24-1.07.47-1.63.69l-.41.16c-.72.28-1.47.53-2.26.76l-.33.08c-.67.19-1.36.35-2.07.5l-.73.14c-.63.11-1.26.2-1.92.27-.26,0-.52.07-.79.09-.78.07-1.59.11-2.42.11h-.38c-1,0-2-.07-3-.17-.24,0-.49-.08-.74-.1-.77-.1-1.55-.24-2.35-.4l-1-.23c-.76-.19-1.54-.42-2.33-.66l-1-.32A34.87,34.87,0,0,1,257,77.88a51.63,51.63,0,0,0-5-2c-.57-.19-1.12-.31-1.67-.48-1.06-.32-2.12-.64-3.15-.87-.65-.14-1.28-.23-1.93-.34-.9-.16-1.81-.33-2.69-.43-.68-.08-1.33-.11-2-.16-.82,0-1.64-.11-2.43-.12l-.58,0c-.35,0-.67.05-1,.06-1.14,0-2.27.09-3.37.2-.5,0-1,.1-1.5.17-1.2.16-2.38.37-3.51.61-.26.06-.54.1-.79.15-1.36.32-2.65.7-3.88,1.09l-1.1.39c-.86.31-1.68.61-2.47.94l-.56.22C225.62,64.75,238.44,57.53,255.27,57.53Zm0,85.67c-25.11,0-40.11-23.81-40.11-46.83a47.19,47.19,0,0,1,.75-8.37l.88-.6.45-.28c.24-.16.49-.31.78-.48s.46-.27.7-.4l.78-.44c.28-.14.57-.3.87-.44l.88-.44c.33-.15.66-.31,1-.45s.66-.29,1-.43l1.12-.44c.37-.14.76-.27,1.16-.4s.77-.27,1.18-.39,1-.27,1.45-.4l1.09-.29c.86-.19,1.74-.36,2.65-.5.36-.06.75-.1,1.12-.14.6-.08,1.21-.15,1.83-.19.43,0,.87,0,1.3-.06.6,0,1.2,0,1.83,0l1.4.06c.63,0,1.26.08,1.9.15l1.45.18c.68.1,1.36.24,2,.38.48.1,1,.18,1.43.3.78.2,1.56.44,2.36.69.42.13.83.24,1.25.39,1.22.43,2.46.92,3.71,1.5a43.67,43.67,0,0,0,4.22,1.69c.37.13.73.25,1.1.36,1.14.37,2.26.68,3.35.93l.73.18c1.32.27,2.61.47,3.87.61l.79.07c1,.08,2,.14,3,.14.28,0,.56,0,.84,0,1.2,0,2.37-.08,3.5-.2l.17,0c1.08-.13,2.11-.3,3.13-.5l.75-.16c.95-.21,1.87-.44,2.75-.71l.28-.08c1-.3,1.92-.63,2.83-1,.18-.06.36-.14.54-.22.74-.3,1.45-.6,2.14-.93l.45-.21c.8-.39,1.56-.78,2.27-1.18a1.86,1.86,0,0,1,.19-.11c.64-.37,1.24-.72,1.8-1.08l.38-.24c.14-.1.3-.19.44-.28a44.55,44.55,0,0,1,2.28,14.46C295.39,119.39,280.38,143.2,255.27,143.2Z"/><path class="cls-2" d="M80.65,36.77c17.86-15,50-11.66,66.65,5.33-1.91-23.26-18.85-38.24-43.91-38.24C86.16,3.86,72.81,11,65.5,23A52.14,52.14,0,0,1,80.65,36.77Z"/><path class="cls-3" d="M147.3,42.1c-16.67-17-48.79-20.31-66.65-5.33A52.14,52.14,0,0,0,65.5,23a44.82,44.82,0,0,0-6.21,23.62c0,25.79,17.46,50.69,44.1,50.69s44.1-24.9,44.1-50.69C147.49,45,147.43,43.55,147.3,42.1Z"/><path class="cls-4" d="M151.29,41.79C149.19,16.4,130.39,0,103.39,0,85,0,70.32,7.45,62.06,21A48.45,48.45,0,0,0,55.3,46.57c0,26.82,18,54.56,48.09,54.56s48.1-27.74,48.1-54.56C151.49,44.94,151.41,43.35,151.29,41.79ZM103.39,7.73c19,0,32.79,9.17,37.91,24.55-.45-.29-.93-.53-1.39-.8s-1-.59-1.5-.87c-.84-.47-1.71-.9-2.58-1.32-.48-.23-.94-.47-1.42-.68-1-.47-2.11-.9-3.19-1.31-.32-.12-.64-.26-1-.37-1.42-.52-2.86-1-4.31-1.38-.27-.08-.54-.13-.82-.2-1.17-.3-2.36-.59-3.56-.82-.49-.11-1-.18-1.5-.27-1-.16-1.95-.32-2.94-.44-.56-.08-1.12-.12-1.7-.18-.92-.09-1.85-.16-2.77-.21l-1.76-.06c-.43,0-.85,0-1.28,0s-1.05,0-1.57,0-1,0-1.47.05c-1.09.06-2.17.16-3.26.27l-1,.1q-2.13.27-4.2.69l-.91.23c-1.07.24-2.13.5-3.17.8L92.64,26c-.89.29-1.76.59-2.62.94l-1.39.55c-.88.37-1.73.78-2.58,1.2-.38.2-.78.38-1.16.59-1.2.65-2.38,1.34-3.51,2.09-.59-.68-1.31-1.47-2.11-2.29-.26-.27-.56-.55-.84-.83-.6-.6-1.22-1.19-1.92-1.83-.38-.35-.77-.69-1.19-1-.72-.62-1.49-1.25-2.3-1.87-.44-.35-.87-.69-1.34-1-.24-.17-.44-.34-.68-.52C78,12.73,89.4,7.73,103.39,7.73Zm0,85.67c-25.1,0-40.11-23.81-40.11-46.83A42.69,42.69,0,0,1,67,28.64c.78.58,1.53,1.15,2.22,1.72l.16.13c.81.67,1.55,1.33,2.24,2,.23.21.43.41.64.63.43.42.86.83,1.24,1.23.22.22.42.44.62.66L75,36l.49.57c.25.28.47.56.67.8l.33.41.45.59.16.21.22.31a4.11,4.11,0,0,0,.6.58,4,4,0,0,0,.59.57,4.11,4.11,0,0,0,4.77-.33,31,31,0,0,1,3.08-2.28c.4-.26.83-.47,1.23-.7.71-.42,1.4-.86,2.15-1.23.5-.25,1-.45,1.55-.68.68-.3,1.35-.62,2-.89s1.16-.37,1.73-.55,1.38-.47,2.09-.66,1.23-.28,1.85-.42,1.4-.33,2.12-.45,1.3-.18,1.94-.26,1.42-.21,2.14-.27,1.34-.07,2-.1,1.43-.08,2.16-.08,1.35,0,2,.06,1.44,0,2.16.09,1.36.15,2,.22,1.45.16,2.18.27,1.34.25,2,.38,1.43.27,2.14.44,1.34.36,2,.54,1.4.38,2.09.61,1.3.46,1.94.7,1.36.49,2,.77,1.25.57,1.88.87,1.29.6,1.92.92,1.21.68,1.81,1,1.22.71,1.8,1.09,1.14.77,1.7,1.18,1.13.81,1.67,1.24,1.06.89,1.57,1.34.73.65,1.07,1c.06.89.08,1.8.08,2.72C143.5,69.59,128.5,93.4,103.39,93.4Z"/><path class="cls-4" d="M119.89,160.39a3.93,3.93,0,0,1-4-3.87,4,4,0,0,1,4-4,3.85,3.85,0,0,1,4,3.77v.19A3.93,3.93,0,0,1,119.89,160.39Z"/><path class="cls-4" d="M119.89,179.4a3.92,3.92,0,0,1-4-3.86v-.47a4,4,0,0,1,8,0v.47A3.93,3.93,0,0,1,119.89,179.4Z"/><path class="cls-4" d="M119.89,198.14a3.92,3.92,0,0,1-4-3.86,4,4,0,0,1,4-4,3.85,3.85,0,0,1,4,3.77v.19A3.92,3.92,0,0,1,119.89,198.14Z"/></g></g></svg>